<svg width="1000" height="1000" viewBox="0 0 1000 1000" id="logo-aztec" xmlns="http://www.w3.org/2000/svg">
<defs>
	<linearGradient id="LG-Text" gradientUnits="userSpaceOnUse" x1="500" y1="643" x2="500" y2="911">
		<stop style="stop-color:#FFF;" offset="0.28" />
		<stop style="stop-color:#A6B0B4;" offset="0.52" />
	</linearGradient>
	<radialGradient id="LG-Ear" gradientUnits="userSpaceOnUse" cx="500" cy="435" r="310"
			gradientTransform="scale(1,0.75)">
		<stop style="stop-color:#287012;" offset="0.999" />
		<stop style="stop-color:#5DBD16;" offset="1" />
	</radialGradient>
	<radialGradient id="LG-Neck" gradientUnits="userSpaceOnUse" cx="500" cy="358" r="265"
			gradientTransform="scale(1,1.14)" transform-origin="500 358">
		<stop style="stop-color:#D48C29;" offset="0.86" />
		<stop style="stop-color:#FFD700;" offset="0.861" />
		<stop style="stop-color:#FFD700;" offset="0.901" />
		<stop style="stop-color:#000;" offset="0.9" />
		<stop style="stop-color:#000;" offset="0.92" />
		<stop style="stop-color:#D48C29;" offset="0.921" />
		<stop style="stop-color:#D48C29;" offset="0.961" />
		<stop style="stop-color:#FFD700;" offset="0.96" />
	</radialGradient>
	<radialGradient id="LG-Paw" gradientUnits="userSpaceOnUse" cx="500" cy="600" r="308"
			gradientTransform="scale(1,0.32)" transform-origin="500 600">
		<stop style="stop-color:#287012;" offset="0.999" />
		<stop style="stop-color:#5DBD16;" offset="1" />
	</radialGradient>
</defs>


<path style="stroke-width:80;stroke-linejoin:round;"
	d="m468,78-55,55C333,141 304,80 291,41 260,73 247,138 268,204l-21,63-36,-31c-53,61-54,141 3,219-42,21-63,87-23,175L114,909C260,881 340,867 500,867V110Zm64,0 55,55c80,8 109,-53 122,-92 31,32 44,97 23,163l21,63 36,-31c53,61 54,141-3,219 42,21 63,87 23,175l77,279C740,881 660,867 500,867V110Z" />
<path style="fill:#000;stroke:#000;stroke-width:50;stroke-linejoin:round;"
	d="m468,78-55,55C333,141 304,80 291,41 260,73 247,138 268,204l-21,63-36,-31c-53,61-54,141 3,219-42,21-63,87-23,175L114,909C256,881 337,866 500,867V110Zm64,0 55,55c80,8 109,-53 122,-92 31,32 44,97 23,163l21,63 36,-31c53,61 54,141-3,219 42,21 63,87 23,175l77,279C744,881 663,866 500,867V110Z" />

<path style="fill:none;stroke:url(#LG-Ear);stroke-width:36;stroke-dasharray:31.716,6.84;"
	d="M215,421C177,367 183,294 228,246M785,421C823,367 817,294 772,246" />
<path style="fill:none;stroke:#B0441A;stroke-width:16;"
	d="m242,403c-29,-42-25,-98 9,-136m507,136c29,-42 25,-98-9,-136" />
<path style="fill:none;stroke:url(#LG-Paw);stroke-width:24;stroke-dasharray:25.2,7.2;"
	d="M801,612c18,-63-76,-84-109,-52M199,612c-18,-63 76,-84 109,-52" />

<path style="fill:none;stroke:#000;stroke-width:60;"
	d="M634,586C738,506 771,349 710,224M366,586C262,506 229,349 290,224" />
<path style="fill:none;stroke:url(#LG-Neck);stroke-width:50;stroke-dasharray:43.5,7.5;"
	d="M634,586C738,506 771,349 710,224M366,586C262,506 229,349 290,224" />
<path style="fill:#000;"
	d="m262,201c52,14 63,32 42,72-22,-19-38,-53-42,-72zm476,0c-52,14-63,32-42,72 22,-19 38,-53 42,-72z" />

<path style="fill:#FFD700"
	d="m468,78v20l32,32v-20zm0,20-64,64h20l44,-44zm-64,64h-20l84,84v-20zm64,64 32,-32-42,-42-10,10 32,32-12,12zm32,4-16,16 16,16zM215,604c1,-37 49,-49 77,-33-8,33-49,51-77,33zM532,78v20l-32,32v-20zm0,20 64,64h-20l-44,-44zm64,64h20l-84,84v-20zm-64,64-32,-32 42,-42 10,10-32,32 12,12zm-32,4 16,16-16,16zm285,374c-1,-37-49,-49-77,-33 8,33 49,51 77,33z" />
<path style="fill:#D48C29;"
	d="m468,78-84,84h20l64,-64zm0,20v20l32,32v-20zm-64,64 64,64v-20l-44,-44zm64,64v20l32,-32v-20zm32,-32v-20l-32,-32-10,10zm-16,52-8,8 24,24V262ZM292,571c-20,29-42,42-77,33 22,38 82,17 77,-33zM532,78 616,162H596L532,98Zm0,20v20l-32,32v-20zm64,64-64,64v-20l44,-44zm-64,64v20l-32,-32v-20zm-32,-32v-20l32,-32 10,10zm16,52 8,8-24,24v-16zm192,325c20,29 42,42 77,33-22,38-82,17-77,-33z" />
<path style="fill:#287012;"
	d="m291,41c-59,68-29,171 3,214-12,-28-38,-109-10,-175 11,67 76,62 30,116 23,-16 36,-25 42,-50C325,114 294,70 291,41Zm84,168c-7,11-26,14-26,14 0,0 48,19 73,49l-78,-36c2,40-23,102-23,102 0,0 31,53 104,21-65,7-78,-22-78,-22 0,0 23,15 44,11-78,-48-29,-79-29,-79 0,0-1,-5-8,-8 24,0 127,40 127,40 0,0-47,-63-106,-92zm-1,79c-24,25 21,50 57,57zm125,17C495,305 476,307 460,333c4,39-9,43-2,66 16,-12 32,10 42,10V305c0,0 0,0-1,0zM242,443c-39,13-91,41-64,153 2,-37 34,-73 96,-70-14,-24-27,-55-32,-83zM709,41c59,68 29,171-3,214 12,-28 38,-109 10,-175-11,67-76,62-30,116-23,-16-36,-25-42,-50 31,-32 62,-76 65,-105zm-84,168c7,11 26,14 26,14 0,0-48,19-73,49l78,-36c-2,40 23,102 23,102 0,0-31,53-104,21 65,7 78,-22 78,-22 0,0-23,15-44,11 78,-48 29,-79 29,-79 0,0 1,-5 8,-8-24,0-127,40-127,40 0,0 47,-63 106,-92zm1,79c24,25-21,50-57,57zM501,305C505,305 524,307 540,333c-4,39 9,43 2,66-16,-12-32,10-42,10V305c0,0 0,0 1,0zM758,443c39,13 91,41 64,153-2,-37-34,-73-96,-70 14,-24 27,-55 32,-83z" />
<path style="fill:#5DBD16;"
	d="m291,41c-14,46 37,98 65,105-7,26-25,38-42,50 33,-13 64,-38 80,-62-68,0-97,-69-103,-93zm81,180c34,16 50,51 50,51 0,0-42,-36-78,-36 12,13 10,25 10,25 0,0 30,2 84,54 11,3 29,3 43,-14-26,-33-78,-72-109,-80zm2,67c7,23 28,30 28,30 0,0-11,1-25,-13 9,25 54,40 54,40 0,0-16,-39-57,-57zm126,29c0,0-13,4e-5-26,17 5,19-4,44-4,44 0,0 12,-13 13,-38 4,17 3,27 1,35-3,12 9,21 16,21zm-49,17c-2,4-5,12-5,12 14,27-4,47 12,53 10,-7 26,2 26,2 0,0-9,-11-25,-7-9,-18 13,-17-8,-60zm-104,3c14,31 57,34 78,22-11,-1-19,-5-19,-5 0,0-35,10-59,-17zM241,463c-38,7-43,25-43,25 0,0 1,-10 15,-23-44,28-39,80-36,111-1,-26 26,-52 47,-55-21,0-36,9-36,9 0,0 17,-26 69,-23-5,-13-13,-28-16,-44zM709,41c14,46-37,98-65,105 7,26 25,38 42,50-33,-13-64,-38-80,-62 68,0 97,-69 103,-93zm-81,180c-34,16-50,51-50,51 0,0 42,-36 78,-36-12,13-10,25-10,25 0,0-30,2-84,54-11,3-29,3-43,-14 26,-33 78,-72 109,-80zm-2,67c-7,23-28,30-28,30 0,0 11,1 25,-13-9,25-54,40-54,40 0,0 16,-39 57,-57zm-126,29c0,0 13,4e-5 26,17-5,19 4,44 4,44 0,0-12,-13-13,-38-4,17-3,27-1,35 3,12-9,21-16,21zm49,17c2,4 5,12 5,12-14,27 4,47-12,53-10,-7-26,2-26,2 0,0 9,-11 25,-7 9,-18-13,-17 8,-60zm104,3c-14,31-57,34-78,22 11,-1 19,-5 19,-5 0,0 35,10 59,-17zm106,126c38,7 43,25 43,25 0,0-1,-10-15,-23 44,28 39,80 36,111 1,-26-26,-52-47,-55 21,0 36,9 36,9 0,0-17,-26-69,-23 5,-13 13,-28 16,-44z" />
<path style="fill:#B0441A;"
	d="m281,101c-9,39-4,87 10,136-4,-40 5,-63 17,-80-15,-12-25,-33-27,-56zM464,404C459,404 455,405 450,409c-8,6 4,23 10,20 27,-14 21,20 40,20v-17c0,0-8,1-17,-14 10,8 17,8 17,8v-7c-7,1-20,-16-36,-15zM719,101c9,39 4,87-10,136 4,-40-5,-63-17,-80 15,-12 25,-33 27,-56zM536,404c4,0 9,2 14,5 8,6-4,23-10,20-27,-14-21,20-40,20v-17c0,0 8,1 17,-14-10,8-17,8-17,8v-7c7,1 20,-16 36,-15z" />
<path style="fill:#A6B0B4;"
	d="m413,374c-74,23-95,-18-95,-18 0,0 8,31 44,35-35,5-43,-9-43,-9 0,0 10,24 44,21 0,0-24,41 28,117 7,3 20,-27 17,-29-11,-6-56,-57 5,-117zm-13,163c0,0-8,52 45,78 20,-15 55,-16 55,-16v-39c0,0-22,-1-53,8 20,-18 53,-15 53,-15v-16c0,0-42,-2-72,12-3,11 1,22 1,22 0,0-14,-10-11,-28 0,-4-18,-6-18,-6zm-6,-124c-21,84 69,80 95,70 12,-3 9,-13-3,-17 0,0-122,5-47,-95-58,23-28,88-28,88 0,0-16,-10-17,-46zm193,-39c74,23 95,-18 95,-18 0,0-8,31-44,35 35,5 43,-9 43,-9 0,0-10,24-44,21 0,0 24,41-28,117-7,3-20,-27-17,-29 11,-6 56,-57-5,-117zm13,163c0,0 8,52-45,78-20,-15-55,-16-55,-16v-39c0,0 22,-1 53,8-20,-18-53,-15-53,-15v-16c0,0 42,-2 72,12 3,11-1,22-1,22 0,0 14,-10 11,-28 0,-4 18,-6 18,-6zm6,-124c21,84-69,80-95,70-12,-3-9,-13 3,-17 0,0 122,5 47,-95 58,23 28,88 28,88 0,0 16,-10 17,-46z" />
<path style="fill:#FFF;"
	d="m439,371c-40,16-31,46-31,46 0,0 1,-19 15,-26-27,51 13,80 13,80 0,0-6,-6-5,-16 20,26 55,11 55,11-18,-8-10,-12-24,-26-12,-12-22,-6-23,-28-4,6-9,8-9,8 0,0 13,-16 9,-49zm-46,8c-50,2-64,-11-75,-23 14,23 40,35 75,23zm-12,9c-27,5-50,6-62,-6 12,20 47,19 62,6zm-18,15c-27,14-42,0-42,0 13,17 19,12 27,23 10,14 5,26 16,41-11,-35 13,-48-1,-64zm137,141c0,0-34,-1-64,15-3,2 8,11 11,9 20,-17 53,-15 53,-15zm0,25c0,0-35,-1-59,16-3,3 5,15 11,12 23,-13 48,-12 48,-12zm-83,-73c6,3 8,4 16,5-9,11-6,31-6,31 0,0-19,-7-10,-36zm25,6c0,0-9,7-9,27 5,1 12,1 18,-1-2,-13-9,-26-9,-26zm7,-1c-1,6 8,25 8,25 0,0 8,-15 9,-25-3,-1-13,-1-17,0zm23,-1c0,0-6,14-8,26 7,0 15,-1 20,-4-3,-10-12,-22-12,-22zm6,0c7,14 12,20 17,23 2,-3 3,-13 3,-27-7,-1-14,0-20,4zM219,602c2,-28 38,-34 38,-34 0,0-26,7-29,33zM561,371c40,16 31,46 31,46 0,0-1,-19-15,-26 27,51-13,80-13,80 0,0 6,-6 5,-16-20,26-55,11-55,11 18,-8 10,-12 24,-26 12,-12 22,-6 23,-28 4,6 9,8 9,8 0,0-13,-16-9,-49zm46,8c50,2 64,-11 75,-23-14,23-40,35-75,23zm12,9c27,5 50,6 62,-6-12,20-47,19-62,6zm18,15c27,14 42,0 42,0-13,17-19,12-27,23-10,14-5,26-16,41 11,-35-13,-48 1,-64zM500,544c0,0 34,-1 64,15 3,2-8,11-11,9-20,-17-53,-15-53,-15zm0,25c0,0 35,-1 59,16 3,3-5,15-11,12-23,-13-48,-12-48,-12zm83,-73c-6,3-8,4-16,5 9,11 6,31 6,31 0,0 19,-7 10,-36zm-25,6c0,0 9,7 9,27-5,1-12,1-18,-1 2,-13 9,-26 9,-26zm-7,-1c1,6-8,25-8,25 0,0-8,-15-9,-25 3,-1 13,-1 17,0zm-23,-1c0,0 6,14 8,26-7,0-15,-1-20,-4 3,-10 12,-22 12,-22zm-6,0c-7,14-12,20-17,23-2,-3-3,-13-3,-27 7,-1 14,0 20,4zm259,102c-2,-28-38,-34-38,-34 0,0 26,7 29,33z" />

<path style="fill:url(#LG-Text);stroke:#FFF;stroke-width:4.5;"
	d="m188,649c9,9-15,73-28,117-13,41-37,132-46,143 11,-3 32,-9 56,-12-4,-23 6,-49 6,-49l52,-8c0,0 3,29-4,46 15,-4 33,-8 53,-9-9,-12-11,-74-15,-113-4,-40-10,-108-3,-115zm30,41 9,115-39,5zm79,185 74,-196c0,0-65,0-75,9 1,-14 2,-39 2,-39h117l-65,186c0,0 57,-2 68,-11v41zM437,649v36c0,0 7,-6 44,-6-1,33 3,178-7,185h53c-9,-6-8,-154-9,-185 36,0 44,7 44,7v-37zm146,0c7,5 20,212 12,218l110,10-3,-40c0,0-5,5-62,1l-7,-71c32,0 42,6 42,6l1,-37-47,-2-3,-57c43,0 58,8 58,8l-2,-36zm210,74c0,0 6,-36-10,-41-25,0-37,-2-36,12l23,148c1,13 48,17 48,17 17,-7-10,-52-10,-52l44,6c6,21 20,78 30,93-88,-20-116,-24-150,-27 6,-5-18,-224-27,-230h110c-6,8 10,54 16,77z"/>
</svg>